<svg id="Layer_1" height="512" viewBox="0 0 512 512" width="512" xmlns="http://www.w3.org/2000/svg" data-name="Layer 1"><path d="m316.17 140.35c37.8-26.03 126.86 3.68 91.88 164.33l-25.04 89.66-80.42-37.85-24.82-116.87c-10.39-71.59 38.4-99.27 38.4-99.27z" fill="#e48e66"/><path d="m376.77 431.56-1.8 26.58a40.616 40.616 0 0 1 -40.48 37.86c-.92 0-1.85-.03-2.78-.09a40.607 40.607 0 0 1 -37.76-43.26l3.82-56.42z" fill="#e48e66"/><g fill="#f8ec7d"><path d="m196.01 24.39s48.74 27.77 38.21 99.34l-25.03 116.82-80.49 37.7-24.88-89.71c-34.67-160.71 54.44-190.26 92.19-164.15z"/><path d="m217.65 336.73a40.6 40.6 0 0 1 -37.85 43.18c-.91.06-1.82.09-2.72.09a40.594 40.594 0 0 1 -40.46-37.93l-1.75-26.59 79.06-35.18z"/></g></svg>